<?xml version="1.0" encoding="UTF-8" standalone="no"?>
<!-- Created with Inkscape (http://www.inkscape.org/) -->

<svg
   xmlns:dc="http://purl.org/dc/elements/1.1/"
   xmlns:cc="http://creativecommons.org/ns#"
   xmlns:rdf="http://www.w3.org/1999/02/22-rdf-syntax-ns#"
   xmlns:svg="http://www.w3.org/2000/svg"
   xmlns="http://www.w3.org/2000/svg"
   xmlns:sodipodi="http://sodipodi.sourceforge.net/DTD/sodipodi-0.dtd"
   xmlns:inkscape="http://www.inkscape.org/namespaces/inkscape"
   width="32"
   height="32"
   viewBox="0 0 8.4666666 8.4666666"
   version="1.1"
   id="svg8"
   inkscape:version="0.92.3 (2405546, 2018-03-11)"
   sodipodi:docname="Icone.svg"
   inkscape:export-filename="C:\Users\Nathan\Documents\Qt\DardosDeLaMuerte\Icone\Icone.png"
   inkscape:export-xdpi="96"
   inkscape:export-ydpi="96">
  <defs
     id="defs2" />
  <sodipodi:namedview
     id="base"
     pagecolor="#ffffff"
     bordercolor="#666666"
     borderopacity="1.0"
     inkscape:pageopacity="0.0"
     inkscape:pageshadow="2"
     inkscape:zoom="5.6"
     inkscape:cx="67.285714"
     inkscape:cy="40.5"
     inkscape:document-units="mm"
     inkscape:current-layer="layer1"
     showgrid="false"
     inkscape:snap-global="true"
     fit-margin-top="0"
     fit-margin-left="0"
     fit-margin-right="0"
     fit-margin-bottom="0"
     inkscape:window-width="1680"
     inkscape:window-height="987"
     inkscape:window-x="-8"
     inkscape:window-y="-8"
     inkscape:window-maximized="1"
     units="px"
     inkscape:snap-page="true"
     inkscape:snap-nodes="false"
     inkscape:snap-others="false" />
  <metadata
     id="metadata5">
    <rdf:RDF>
      <cc:Work
         rdf:about="">
        <dc:format>image/svg+xml</dc:format>
        <dc:type
           rdf:resource="http://purl.org/dc/dcmitype/StillImage" />
        <dc:title></dc:title>
      </cc:Work>
    </rdf:RDF>
  </metadata>
  <g
     inkscape:label="Calque 1"
     inkscape:groupmode="layer"
     id="layer1"
     transform="translate(-82.701458,-162.33187)">
    <g
       id="g1520"
       transform="matrix(0.83142252,0,0,0.83142252,15.020692,27.909264)">
      <path
         inkscape:connector-curvature="0"
         id="circle819"
         d="m 89.745113,166.95882 a 3.1649365,3.09136 0 0 1 -3.164936,3.09136 3.1649365,3.09136 0 0 1 -3.164936,-3.09136 3.1649365,3.09136 0 0 1 3.164936,-3.09136 3.1649365,3.09136 0 0 1 3.164936,3.09136 z"
         style="opacity:1;fill:none;fill-opacity:1;stroke:#000000;stroke-width:0.616;stroke-linecap:square;stroke-miterlimit:4;stroke-dasharray:none;stroke-dashoffset:0;stroke-opacity:1" />
      <g
         transform="matrix(0.11025167,0.1076886,-0.11025167,0.1076886,92.444508,138.6276)"
         id="g939">
        <rect
           y="127.49059"
           x="102.21812"
           height="24.426731"
           width="5.5637674"
           id="rect911"
           style="opacity:1;fill:#ffffff;fill-opacity:1;stroke:none;stroke-width:6.08499432;stroke-linecap:square;stroke-miterlimit:4;stroke-dasharray:none;stroke-dashoffset:0;stroke-opacity:1" />
        <path
           sodipodi:nodetypes="cccccccccc"
           inkscape:connector-curvature="0"
           id="path913"
           d="m 104.0186,151.99192 v -17.67296 l -2.01398,-3.74303 v -10.32894 l 2.99538,3.88518 2.99538,-3.88518 v 10.32893 l -2.01398,3.74304 -10e-6,17.67294 z"
           style="fill:#000000;stroke:#000000;stroke-width:0.23239607px;stroke-linecap:butt;stroke-linejoin:miter;stroke-opacity:1" />
      </g>
      <g
         transform="matrix(0.22173162,0,0,0.21657693,83.919398,164.29162)"
         id="g836">
        <path
           inkscape:connector-curvature="0"
           d="M 20,9 A 7,7 0 0 0 13,2 H 11 A 7,7 0 0 0 4,9 v 1 c 0,0.57813 0.59167,0.69482 0.59167,1 C 4.59167,11.30518 4,11.69482 4,12 v 1 a 2,2 0 0 0 2,2 h 3 v 2 a 1,1 0 0 0 1,1 h 0.5 v -1 h 1 v 1 h 1 v -1 h 1 v 1 H 14 a 1,1 0 0 0 1,-1 v -2 h 3 a 2,2 0 0 0 2,-2 V 12 C 20,11.54688 19.40833,11.30518 19.40833,11 19.40833,10.69482 20,10.51563 20,10 Z m -9.71448,2.08051 C 9.79809,13.20075 9.01952,12.83912 7.99286,12.80475 6.90344,12.7674 6.17474,12.66388 5.94641,12.17951 5.38702,11.51917 5.47406,8.48792 8.16528,9.61829 c 1.21851,0.51178 2.27155,0.91742 2.12024,1.46222 z m 2.38312,4.25012 c -0.52423,0 -0.3988,-0.60828 -0.66864,-0.60358 -0.28345,0.0054 -0.19708,0.60358 -0.70593,0.60358 a 0.5349,0.5349 0 0 1 -0.52429,-0.67578 6.56615,6.56615 0 0 1 0.75391,-1.48523 0.53565,0.53565 0 0 1 0.91541,0 6.54456,6.54456 0 0 1 0.75446,1.48523 0.53553,0.53553 0 0 1 -0.52492,0.67578 z m 5.35529,-3.15112 c -0.22833,0.48438 -0.957,0.58789 -2.04645,0.62524 -1.02667,0.03436 -1.80518,0.396 -2.2926,-1.72424 -0.15131,-0.5448 0.90167,-0.95044 2.12024,-1.46222 2.69122,-1.13037 2.77819,1.90088 2.21881,2.56121 z"
           id="path823" />
        <path
           inkscape:connector-curvature="0"
           d="m 16.5,17.58331 a 2,2 0 0 1 -2,2 h -1 V 20.5 h -1 v -0.91669 h -1 V 20.5 h -1 v -0.91669 h -1 a 2,2 0 0 1 -2,-2 V 16 H 6 v 2.72565 a 2,2 0 0 0 0.83124,1.62292 L 10,22.63049 l 0.6,-0.3 a 3.13051,3.13051 0 0 1 2.8,0 l 0.6,0.3 3.16876,-2.28192 A 2,2 0 0 0 18,18.72565 V 16 h -1.5 z"
           id="path825" />
      </g>
      <path
         style="opacity:1;fill:none;fill-opacity:1;stroke:#000000;stroke-width:0.616;stroke-linecap:square;stroke-miterlimit:4;stroke-dasharray:none;stroke-dashoffset:0;stroke-opacity:1"
         d="m 91.036748,166.95882 a 4.4565716,4.3529679 0 0 1 -4.456571,4.35297 4.4565716,4.3529679 0 0 1 -4.456571,-4.35297 4.4565716,4.3529679 0 0 1 4.456571,-4.35297 4.4565716,4.3529679 0 0 1 4.456571,4.35297 z"
         id="path1510"
         inkscape:connector-curvature="0" />
    </g>
  </g>
</svg>
